<svg xmlns="http://www.w3.org/2000/svg" viewBox="0 0 2174.13 1080"><defs><style>.cls-1{fill:#f3f4f6;}.cls-11,.cls-12,.cls-14,.cls-15,.cls-2,.cls-6,.cls-7,.cls-8,.cls-9{fill:#0369a1;}.cls-2{opacity:0.21;}.cls-13,.cls-3,.cls-5{fill:#d1d5db;}.cls-10,.cls-4{fill:#9ca3af;}.cls-13,.cls-14,.cls-4,.cls-5{stroke:#000;stroke-miterlimit:10;}.cls-14,.cls-4,.cls-5{stroke-width:0.25px;}.cls-6{opacity:0.24;}.cls-7{opacity:0.15;}.cls-8{opacity:0.25;}.cls-9{opacity:0.19;}.cls-11{opacity:0.23;}.cls-12{opacity:0.06;}.cls-13{stroke-width:0.75px;}.cls-14{opacity:0.16;}.cls-15{opacity:0.22;}</style></defs><g id="Layer_2" data-name="Layer 2"><g id="Layer_1-2" data-name="Layer 1"><rect class="cls-1" x="141" width="1920" height="1080"/><polygon class="cls-2" points="0 281 262 307 0 365.22 0 281"/><polygon class="cls-3" points="153 344.67 153 410 184.94 410 152.56 337.67 153 344.67"/><polygon class="cls-3" points="127 221 186.72 286.5 119 312 127 221"/><polygon class="cls-4" points="1959.5 775.17 2174 692 2174 733.58 1959.5 775.17"/><polygon class="cls-2" points="1959 775.11 2128 916.78 2128 817.22 1959 775.11"/><polygon class="cls-5" points="2111 812 1995.17 944.5 2111 869.22 2111 812"/><polygon class="cls-6" points="2008 976 2079.06 1080 2079 1043 2008 970.33 2008 976"/><circle class="cls-3" cx="337" cy="305" r="12"/><circle class="cls-7" cx="272" cy="408" r="10"/><circle class="cls-4" cx="227.5" cy="376.5" r="2.5"/><circle class="cls-8" cx="189.5" cy="462.5" r="4.5"/><circle class="cls-3" cx="250.5" cy="179.5" r="4.5"/><circle class="cls-9" cx="202.5" cy="234.5" r="8.5"/><circle class="cls-4" cx="226.5" cy="459.5" r="1.5"/><ellipse class="cls-10" cx="164.5" cy="521.5" rx="4.5" ry="8.5"/><circle class="cls-3" cx="193.5" cy="356.5" r="8.5"/><ellipse class="cls-5" cx="255" cy="262.5" rx="4" ry="4.5"/><circle class="cls-11" cx="174.5" cy="125.5" r="5.5"/><circle class="cls-6" cx="1964" cy="851" r="5"/><circle class="cls-12" cx="1967" cy="978" r="8"/><ellipse class="cls-13" cx="2029" cy="1062" rx="15" ry="10"/><circle class="cls-14" cx="1940" cy="647" r="11"/><circle class="cls-3" cx="2014.5" cy="693.5" r="6.5"/><circle class="cls-5" cx="1893" cy="767" r="8"/><ellipse class="cls-3" cx="1976" cy="476.5" rx="9" ry="13.5"/><circle class="cls-15" cx="1886" cy="895" r="7"/><ellipse class="cls-3" cx="1908.5" cy="999" rx="7.5" ry="8"/><circle class="cls-4" cx="1960" cy="897" r="9"/><circle class="cls-4" cx="1971.5" cy="716.5" r="4.5"/><circle class="cls-10" cx="2008" cy="565" r="13"/></g></g></svg>