<svg id="Layer_1" data-name="Layer 1" xmlns="http://www.w3.org/2000/svg" viewBox="0 0 1922.72 1080"><defs><style>.cls-1{fill:#f3f4f6;}.cls-11,.cls-12,.cls-14,.cls-15,.cls-2,.cls-6,.cls-7,.cls-8,.cls-9{fill:#0369a1;isolation:isolate;}.cls-2{opacity:0.21;}.cls-13,.cls-3,.cls-5{fill:#d1d5db;}.cls-10,.cls-4{fill:#9ca3af;}.cls-13,.cls-14,.cls-4,.cls-5{stroke:#000;stroke-miterlimit:10;}.cls-14,.cls-4,.cls-5{stroke-width:0.25px;}.cls-6{opacity:0.24;}.cls-7{opacity:0.15;}.cls-8{opacity:0.25;}.cls-9{opacity:0.19;}.cls-11{opacity:0.23;}.cls-12{opacity:0.06;}.cls-13{stroke-width:0.75px;}.cls-14{opacity:0.16;}.cls-15{opacity:0.22;}</style></defs><rect class="cls-1" x="2.6" width="1920" height="1080"/><polygon class="cls-2" points="0 281 123.6 307 0 365.2 0 281"/><polygon class="cls-3" points="14.6 344.7 14.6 410 46.5 410 14.2 337.7 14.6 344.7"/><polygon class="cls-3" points="5.71 221 48.3 286.5 0 312 5.71 221"/><polygon class="cls-4" points="1821.1 775.2 1920 692 1920 733.6 1821.1 775.2"/><polygon class="cls-2" points="1821.1 775.1 1922.6 916.8 1922.6 817.2 1821.1 775.1"/><polygon class="cls-5" points="1922.6 812 1856.8 944.5 1922.6 869.2 1922.6 812"/><polygon class="cls-6" points="1869.6 976 1920 1080 1919.93 1043 1869.6 970.3 1869.6 976"/><circle class="cls-3" cx="198.6" cy="305" r="12"/><circle class="cls-7" cx="133.6" cy="408" r="10"/><circle class="cls-4" cx="89.1" cy="376.5" r="2.5"/><circle class="cls-8" cx="51.1" cy="462.5" r="4.5"/><circle class="cls-3" cx="112.1" cy="179.5" r="4.5"/><circle class="cls-9" cx="64.1" cy="234.5" r="8.5"/><circle class="cls-4" cx="88.1" cy="459.5" r="1.5"/><ellipse class="cls-10" cx="26.1" cy="521.5" rx="4.5" ry="8.5"/><circle class="cls-3" cx="55.1" cy="356.5" r="8.5"/><ellipse class="cls-5" cx="116.6" cy="262.5" rx="4" ry="4.5"/><circle class="cls-11" cx="36.1" cy="125.5" r="5.5"/><circle class="cls-6" cx="1825.6" cy="851" r="5"/><circle class="cls-12" cx="1828.6" cy="978" r="8"/><ellipse class="cls-13" cx="1890.6" cy="1062" rx="15" ry="10"/><circle class="cls-14" cx="1801.6" cy="647" r="11"/><circle class="cls-3" cx="1876.1" cy="693.5" r="6.5"/><circle class="cls-5" cx="1754.6" cy="767" r="8"/><ellipse class="cls-3" cx="1837.6" cy="476.5" rx="9" ry="13.5"/><circle class="cls-15" cx="1747.6" cy="895" r="7"/><ellipse class="cls-3" cx="1770.1" cy="999" rx="7.5" ry="8"/><circle class="cls-4" cx="1821.6" cy="897" r="9"/><circle class="cls-4" cx="1833.1" cy="716.5" r="4.5"/><circle class="cls-10" cx="1869.6" cy="565" r="13"/></svg>