<svg xmlns="http://www.w3.org/2000/svg" viewBox="0 0 1972.5 1108.5"><defs><style>.cls-1,.cls-21,.cls-22,.cls-23,.cls-24,.cls-25,.cls-28,.cls-29,.cls-30,.cls-31,.cls-32,.cls-33,.cls-34,.cls-35,.cls-7{fill:#f3f4f6;}.cls-2{fill:#2543d1;}.cls-3{fill:#253da5;}.cls-4{fill:#002a26;}.cls-22,.cls-4,.cls-6{opacity:0.14;}.cls-11,.cls-21,.cls-22,.cls-23,.cls-24,.cls-25,.cls-28,.cls-29,.cls-30,.cls-31,.cls-32,.cls-33,.cls-34,.cls-35,.cls-4,.cls-6,.cls-8,.cls-9{isolation:isolate;}.cls-5{fill:#007d9f;}.cls-6{fill:#007f6f;}.cls-7{stroke:#000;stroke-miterlimit:10;}.cls-8{fill:#006ab4;opacity:0.26;}.cls-9{fill:#002c35;opacity:0.18;}.cls-10{fill:#008a61;}.cls-11{fill:#00597f;}.cls-11,.cls-18{opacity:0.07;}.cls-12,.cls-35{opacity:0.04;}.cls-13{opacity:0.32;}.cls-14{opacity:0.09;}.cls-15{opacity:0.28;}.cls-16{opacity:0.06;}.cls-17,.cls-29{opacity:0.05;}.cls-19{opacity:0.19;}.cls-20{opacity:0.23;}.cls-21{opacity:0.31;}.cls-23{opacity:0.21;}.cls-24{opacity:0.08;}.cls-25{opacity:0.27;}.cls-26{opacity:0.17;}.cls-27{opacity:0.22;}.cls-28{opacity:0.25;}.cls-30{opacity:0.16;}.cls-31{opacity:0.36;}.cls-32{opacity:0.24;}.cls-33{opacity:0.15;}.cls-34{opacity:0.12;}</style></defs><g id="Layer_2" data-name="Layer 2"><g id="Layer_1-2" data-name="Layer 1"><rect class="cls-1" x="30.5" y="29" width="1919" height="1079"/><path d="M1949,29.5v1078H31V29.5H1949m1-1H30v1080H1950V28.5Z"/><path class="cls-2" d="M30,129.4V933.6l1920-.1V208.6S1337,87.5,778,230.5,30,129.4,30,129.4Z"/><path class="cls-3" d="M30,258.5v675H1950V177.9S1504,48.4,974,315.4,30,258.5,30,258.5Z"/><circle class="cls-4" cx="1901" cy="66.5" r="16.5"/><circle class="cls-5" cx="1811" cy="105.5" r="9.5"/><circle class="cls-6" cx="1896.5" cy="127" r="12"/><circle class="cls-7" cx="1847.5" cy="138" r="9"/><polygon class="cls-8" points="1847.5 50 1958.5 0 1958.5 66.5 1847.5 50"/><circle class="cls-9" cx="1862" cy="88.5" r="5.5"/><ellipse class="cls-10" cx="1723" cy="53.5" rx="7.5" ry="3.5"/><circle class="cls-11" cx="1756.5" cy="110" r="5"/><g class="cls-12"><ellipse class="cls-1" cx="103" cy="476.5" rx="7" ry="14"/></g><g class="cls-13"><ellipse class="cls-1" cx="97.5" cy="562.5" rx="12.5" ry="22"/></g><g class="cls-14"><ellipse class="cls-1" cx="64" cy="425" rx="11" ry="15.5"/></g><g class="cls-15"><circle class="cls-1" cx="166" cy="559.5" r="9"/></g><g class="cls-16"><circle class="cls-1" cx="176" cy="636.5" r="10"/></g><g class="cls-17"><circle class="cls-1" cx="103" cy="707.5" r="7"/></g><g class="cls-13"><circle class="cls-1" cx="123.5" cy="624" r="5.5"/></g><g class="cls-18"><ellipse class="cls-1" cx="180.5" cy="470" rx="5.5" ry="12.5"/></g><g class="cls-19"><ellipse class="cls-1" cx="168.5" cy="805.5" rx="11.5" ry="12"/></g><g class="cls-20"><circle class="cls-1" cx="62.5" cy="656" r="9.5"/></g><polygon class="cls-21" points="47.2 457.5 123.5 519.5 53 507.5 47.2 457.5"/><polygon class="cls-22" points="6.9 562.5 62.5 596.3 0 618.1 6.9 562.5"/><polygon class="cls-23" points="38.9 596.3 38.9 636.5 118 596.3 38.9 596.3"/><polygon class="cls-24" points="47.2 700 75.5 763 129 737.9 47.2 700"/><polygon class="cls-25" points="97.5 636.5 144.5 674 72 721.3 97.5 636.5"/><g class="cls-15"><circle class="cls-1" cx="1905" cy="381.5" r="9"/></g><g class="cls-26"><circle class="cls-1" cx="1929" cy="519.5" r="12"/></g><g class="cls-19"><ellipse class="cls-1" cx="1857" cy="700" rx="10" ry="10.5"/></g><g class="cls-12"><ellipse class="cls-1" cx="1847.5" cy="842.5" rx="9.5" ry="5"/></g><g class="cls-27"><circle class="cls-1" cx="1777.5" cy="511" r="3.5"/></g><polygon class="cls-24" points="1774 562.5 1781 624 1862 531.5 1774 562.5"/><polygon class="cls-28" points="1818 462.5 1811 568.5 1847.5 515.5 1818 462.5"/><polygon class="cls-29" points="1896.5 440.5 1884.5 500.2 1941 447.5 1896.5 440.5"/><polygon class="cls-30" points="1862 440.5 1857 462.5 1876.4 457.5 1862 440.5"/><polygon class="cls-31" points="1884.5 515.5 1929 550.5 1917.5 616.4 1884.5 515.5"/><polygon class="cls-32" points="1896 665 1958.5 665.5 1917.5 763 1896 665"/><polygon class="cls-33" points="1903 266.9 1972.5 315 1937.8 366.9 1903 266.9"/><polygon class="cls-34" points="1847 326.6 1917.5 346.1 1829.2 409.5 1847 326.6"/><polygon class="cls-28" points="1790.3 665 1777.5 689.5 1811 700.5 1790.3 665"/><polygon class="cls-35" points="1847.5 584.5 1927.2 646.5 1896 689.5 1847.5 584.5"/><polygon class="cls-24" points="1715.5 737.9 1829.2 758.6 1781 763 1715.5 737.9"/><ellipse class="cls-3" cx="1794.5" cy="408" rx="6.5" ry="17.5"/><circle class="cls-3" cx="1695.5" cy="468" r="10.5"/><ellipse class="cls-3" cx="1733" cy="627" rx="10" ry="10.5"/><circle class="cls-3" cx="1731.5" cy="449" r="8.5"/><g class="cls-26"><circle class="cls-1" cx="1896" cy="842.5" r="12"/></g><g class="cls-26"><circle class="cls-1" cx="1723" cy="616.5" r="12"/></g><g class="cls-26"><circle class="cls-1" cx="1728" cy="435.5" r="12"/></g><g class="cls-15"><circle class="cls-1" cx="1818" cy="317.5" r="9"/></g><g class="cls-15"><circle class="cls-1" cx="1829" cy="628.5" r="9"/></g><g class="cls-15"><circle class="cls-1" cx="1706" cy="707.5" r="9"/></g></g></g></svg>