<svg xmlns="http://www.w3.org/2000/svg" viewBox="0 0 1922.25 1080"><defs><style>.cls-1,.cls-12,.cls-13,.cls-14,.cls-15,.cls-16,.cls-17,.cls-18,.cls-19,.cls-20,.cls-21,.cls-22,.cls-23,.cls-24,.cls-25,.cls-26,.cls-27,.cls-28,.cls-29,.cls-30,.cls-31,.cls-32,.cls-33,.cls-34,.cls-35,.cls-36,.cls-37,.cls-38,.cls-39,.cls-40,.cls-7{fill:#f3f4f6;}.cls-2{fill:#2543d1;}.cls-3{fill:#253da5;}.cls-4{fill:#002a26;}.cls-19,.cls-4,.cls-6{opacity:0.14;}.cls-11,.cls-18,.cls-19,.cls-20,.cls-21,.cls-22,.cls-28,.cls-29,.cls-30,.cls-31,.cls-32,.cls-33,.cls-34,.cls-35,.cls-4,.cls-6,.cls-8,.cls-9{isolation:isolate;}.cls-5{fill:#007d9f;}.cls-6{fill:#007f6f;}.cls-7{stroke:#000;stroke-miterlimit:10;}.cls-8{fill:#006ab4;opacity:0.26;}.cls-9{fill:#002c35;opacity:0.18;}.cls-10{fill:#008a61;}.cls-11{fill:#00597f;opacity:0.07;}.cls-12{opacity:0.06;}.cls-13{opacity:0.08;}.cls-14{opacity:0.11;}.cls-15{opacity:0.13;}.cls-16{opacity:0.17;}.cls-17{opacity:0.27;}.cls-18{opacity:0.31;}.cls-20{opacity:0.21;}.cls-21{opacity:0.08;}.cls-22{opacity:0.27;}.cls-23{opacity:0.02;}.cls-24{opacity:0.16;}.cls-25{opacity:0.26;}.cls-26{opacity:0.29;}.cls-27{opacity:0.28;}.cls-28{opacity:0.25;}.cls-29{opacity:0.05;}.cls-30{opacity:0.16;}.cls-31{opacity:0.36;}.cls-32{opacity:0.24;}.cls-33{opacity:0.15;}.cls-34{opacity:0.12;}.cls-35{opacity:0.04;}.cls-36{opacity:0.21;}.cls-37{opacity:0.04;}.cls-38{opacity:0.24;}.cls-39{opacity:0.19;}.cls-40{opacity:0.07;}</style></defs><g id="Layer_2" data-name="Layer 2"><g id="Layer_1-2" data-name="Layer 1"><rect class="cls-1" width="1919.75" height="1080"/><path class="cls-2" d="M0,100.9V905.1l1920-.1V180.1S1307,59,748,202,0,100.9,0,100.9Z"/><path class="cls-3" d="M0,230V905H1920V149.4S1474,19.9,944,286.9,0,230,0,230Z"/><circle class="cls-4" cx="1871" cy="38" r="16.5"/><circle class="cls-5" cx="1781" cy="77" r="9.5"/><circle class="cls-6" cx="1866.5" cy="98.5" r="12"/><circle class="cls-7" cx="1817.5" cy="109.5" r="9"/><polygon class="cls-8" points="1808.75 54.75 1919.75 4.75 1919.75 71.25 1808.75 54.75"/><circle class="cls-9" cx="1832" cy="60" r="5.5"/><ellipse class="cls-10" cx="1693" cy="25" rx="7.5" ry="3.5"/><circle class="cls-11" cx="1726.5" cy="81.5" r="5"/><ellipse class="cls-12" cx="76" cy="450.9" rx="7" ry="14"/><ellipse class="cls-12" cx="70.5" cy="536.9" rx="12.5" ry="22"/><ellipse class="cls-13" cx="37" cy="399.4" rx="11" ry="15.5"/><circle class="cls-14" cx="139" cy="533.9" r="9"/><circle class="cls-15" cx="117.5" cy="604.55" r="10"/><circle class="cls-15" cx="76" cy="681.9" r="7"/><ellipse class="cls-14" cx="153.5" cy="444.4" rx="5.5" ry="12.5"/><ellipse class="cls-16" cx="141.5" cy="779.9" rx="11.5" ry="12"/><circle class="cls-17" cx="35.5" cy="630.4" r="9.5"/><polygon class="cls-18" points="20.2 431.9 96.5 493.9 26 481.9 20.2 431.9"/><polygon class="cls-19" points="3.92 536.9 35.5 570.7 0 592.5 3.92 536.9"/><polygon class="cls-20" points="11.9 570.7 11.9 610.9 91 570.7 11.9 570.7"/><polygon class="cls-21" points="20.2 674.4 48.5 737.4 102 712.3 20.2 674.4"/><polygon class="cls-22" points="70.5 610.9 117.5 648.4 45 695.7 70.5 610.9"/><circle class="cls-23" cx="1866.25" cy="351.8" r="9"/><circle class="cls-24" cx="1890.25" cy="489.8" r="12"/><ellipse class="cls-25" cx="1818.25" cy="670.3" rx="10" ry="10.5"/><ellipse class="cls-26" cx="1808.75" cy="812.8" rx="9.5" ry="5"/><circle class="cls-27" cx="1738.75" cy="481.3" r="3.5"/><polygon class="cls-21" points="1735.25 532.8 1742.25 594.3 1823.25 501.8 1735.25 532.8"/><polygon class="cls-28" points="1779.25 432.8 1772.25 538.8 1808.75 485.8 1779.25 432.8"/><polygon class="cls-29" points="1857.75 410.8 1845.75 470.5 1902.25 417.8 1857.75 410.8"/><polygon class="cls-30" points="1823.25 410.8 1818.25 432.8 1837.65 427.8 1823.25 410.8"/><polygon class="cls-31" points="1845.75 485.8 1890.25 520.8 1878.75 586.7 1845.75 485.8"/><polygon class="cls-32" points="1857.25 635.3 1919.75 635.8 1878.75 733.3 1857.25 635.3"/><polygon class="cls-33" points="1852.75 237.2 1922.25 285.3 1887.55 337.2 1852.75 237.2"/><polygon class="cls-34" points="1808.25 296.9 1878.75 316.4 1790.45 379.8 1808.25 296.9"/><polygon class="cls-28" points="1751.55 635.3 1738.75 659.8 1772.25 670.8 1751.55 635.3"/><polygon class="cls-35" points="1808.75 554.8 1888.45 616.8 1857.25 659.8 1808.75 554.8"/><polygon class="cls-21" points="1676.75 708.2 1790.45 728.9 1742.25 733.3 1676.75 708.2"/><ellipse class="cls-3" cx="1755.75" cy="378.3" rx="6.5" ry="17.5"/><circle class="cls-3" cx="1656.75" cy="438.3" r="10.5"/><ellipse class="cls-3" cx="1694.25" cy="597.3" rx="10" ry="10.5"/><circle class="cls-3" cx="1692.75" cy="419.3" r="8.5"/><circle class="cls-36" cx="1857.25" cy="812.8" r="12"/><circle class="cls-37" cx="1684.25" cy="586.8" r="12"/><circle class="cls-38" cx="1689.25" cy="405.8" r="12"/><circle class="cls-39" cx="1779.25" cy="287.8" r="9"/><circle class="cls-25" cx="1790.25" cy="598.8" r="9"/><circle class="cls-40" cx="1667.25" cy="677.8" r="9"/></g></g></svg>