<svg id="Layer_1" data-name="Layer 1" xmlns="http://www.w3.org/2000/svg" xmlns:xlink="http://www.w3.org/1999/xlink" viewBox="0 0 1924.5 1253"><defs><style>.cls-1{fill:none;}.cls-2{fill:#9ca3af;opacity:0.43;}.cls-10,.cls-11,.cls-12,.cls-13,.cls-14,.cls-15,.cls-16,.cls-17,.cls-18,.cls-19,.cls-2,.cls-20,.cls-21,.cls-22,.cls-23,.cls-24,.cls-25,.cls-26,.cls-27,.cls-28,.cls-29,.cls-30,.cls-31,.cls-32,.cls-5,.cls-6,.cls-7,.cls-8,.cls-9{isolation:isolate;}.cls-3{fill:#000b9b;}.cls-4{clip-path:url(#clip-path);}.cls-20,.cls-22,.cls-6{fill:#000065;}.cls-6{opacity:0.77;}.cls-10,.cls-11,.cls-12,.cls-13,.cls-14,.cls-15,.cls-16,.cls-17,.cls-18,.cls-19,.cls-21,.cls-23,.cls-24,.cls-25,.cls-26,.cls-27,.cls-28,.cls-29,.cls-30,.cls-31,.cls-32,.cls-7,.cls-8,.cls-9{fill:#fff;}.cls-7{opacity:0.05;}.cls-20,.cls-8{opacity:0.06;}.cls-9{opacity:0.25;}.cls-10{opacity:0.09;}.cls-11{opacity:0.08;}.cls-12{opacity:0.13;}.cls-13{opacity:0.22;}.cls-14{opacity:0.29;}.cls-15{opacity:0.17;}.cls-16{opacity:0.21;}.cls-17{opacity:0.16;}.cls-18{opacity:0.04;}.cls-19{opacity:0.26;}.cls-21{opacity:0.18;}.cls-22,.cls-25{opacity:0.23;}.cls-23{opacity:0.11;}.cls-24{opacity:0.19;}.cls-26{opacity:0.27;}.cls-27{opacity:0.07;}.cls-28{opacity:0.24;}.cls-29{opacity:0.28;}.cls-30{opacity:0.14;}.cls-31{opacity:0.03;}.cls-32{opacity:0.12;}</style><clipPath id="clip-path" transform="translate(1.4)"><path class="cls-1" d="M1920,71.2V1080H0V111s643,150,986,75S1494-31.5,1920,71.2Z"/></clipPath></defs><path class="cls-2" d="M1920,95.9V1080H0V21.9S723,225,978,144,1794-12.2,1920,95.9Z" transform="translate(1.4)"/><path id="SVGID" class="cls-3" d="M1920,71.2V1080H0V111s643,150,986,75S1494-31.5,1920,71.2Z" transform="translate(1.4)"/><g class="cls-4"><image class="cls-5" width="1880" height="1253" transform="translate(1.4) scale(1.02 1)" xlink:href="../../../../photo/pexels-photo-7412031.jpeg"/></g><path class="cls-6" d="M1920,71.2V1080H0V111s708.9,157,1004,71S1566-25.5,1920,71.2Z" transform="translate(1.4)"/><ellipse class="cls-7" cx="77.9" cy="218" rx="8.5" ry="4"/><ellipse class="cls-8" cx="70.4" cy="392.5" rx="16" ry="30.5"/><ellipse class="cls-9" cx="151.4" cy="431.5" rx="20" ry="24.5"/><circle class="cls-10" cx="113.4" cy="533" r="7"/><ellipse class="cls-11" cx="73.4" cy="658.5" rx="4" ry="18.5"/><ellipse class="cls-12" cx="1820.4" cy="187.5" rx="8" ry="13.5"/><circle class="cls-13" cx="1803.9" cy="431.5" r="8.5"/><ellipse class="cls-14" cx="1842.9" cy="770.5" rx="14.5" ry="4.5"/><circle class="cls-15" cx="1865.4" cy="941" r="8"/><ellipse class="cls-16" cx="1727.9" cy="1017" rx="11.5" ry="5"/><ellipse class="cls-17" cx="103.4" cy="945" rx="17" ry="4"/><circle class="cls-18" cx="159.9" cy="757.5" r="8.5"/><circle class="cls-19" cx="1709.9" cy="273.5" r="11.5"/><circle class="cls-20" cx="1831.9" cy="615.5" r="11.5"/><polygon class="cls-21" points="30.1 262 94.5 285 16.4 312 30.1 262"/><polygon class="cls-22" points="54.4 338.4 54.4 285 94.5 362 54.4 338.4"/><polygon class="cls-23" points="34.2 440 131.4 467.1 55.4 486.3 34.2 440"/><polygon class="cls-11" points="24.6 463.2 106.4 494.5 74.4 540 24.6 463.2"/><polygon class="cls-24" points="151.4 587.7 227.3 640 106.4 627 151.4 587.7"/><polygon class="cls-25" points="34.2 727.4 106.4 790.4 45.1 770.5 34.2 727.4"/><polygon class="cls-23" points="86.4 719.2 65.5 770.5 94.5 744.8 86.4 719.2"/><polygon class="cls-26" points="39.7 790.4 24.6 821.9 73.4 797.3 39.7 790.4"/><polygon class="cls-27" points="0 859 49.2 921.9 0 890.5 0 859"/><polygon class="cls-11" points="44.45 551 4.75 615.5 36.25 604 44.45 551"/><polygon class="cls-27" points="1857.4 267.1 1843.4 312 1906.4 253 1857.4 267.1"/><polygon class="cls-28" points="1873.4 222 1921.4 312 1887.6 312 1873.4 222"/><polygon class="cls-7" points="1897.4 80 1857.4 128.8 1921.4 95.9 1897.4 80"/><polygon class="cls-10" points="1795.4 362 1820.4 372.6 1807.9 384.9 1795.4 362"/><polygon class="cls-29" points="1865.4 423 1906.4 463.2 1885.9 478.1 1865.4 423"/><polygon class="cls-30" points="1852 486.3 1897.4 511 1906.4 540 1852 486.3"/><polygon class="cls-30" points="1812.4 513.2 1885.9 486.3 1885.9 533 1812.4 513.2"/><polygon class="cls-8" points="1858.4 585.9 1858.4 668.1 1920.4 646.2 1858.4 585.9"/><polygon class="cls-17" points="1803.9 669.9 1812.4 715.1 1897.4 669.9 1803.9 669.9"/><polygon class="cls-8" points="1854.3 719.1 1872.5 784.8 1924.5 704.9 1854.3 719.1"/><polygon class="cls-28" points="1833.65 821.9 1849.65 758.9 1913.15 790.4 1841.65 821.9 1833.65 821.9"/><polygon class="cls-31" points="1765.4 875 1774.4 956 1812.4 875 1765.4 875"/><polygon class="cls-28" points="1782.4 907 1831.9 898.6 1812.4 915.5 1782.4 907"/><polygon class="cls-21" points="1654.7 1022 1598.4 1055 1690.3 1038.5 1654.7 1022"/><polygon class="cls-26" points="1812.4 998.6 1820.4 1038.5 1885.9 998.6 1812.4 998.6"/><polygon class="cls-17" points="1865.4 1001.5 1879.2 1075.5 1906.4 1029.1 1865.4 1001.5"/><polygon class="cls-32" points="1914.95 960.1 1843.45 1016.3 1914.95 988.2 1914.95 960.1"/></svg>