<svg xmlns="http://www.w3.org/2000/svg" viewBox="0 0 392.61 261.7"><defs><style>.cls-1{fill:#007f89;}.cls-2{fill:#2a9793;}.cls-3{fill:#007881;}.cls-4,.cls-5{isolation:isolate;font-family:MyriadPro-Regular, Myriad Pro;}.cls-4{font-size:78px;fill:#065629;}.cls-5{font-size:21px;fill:#02744f;}.cls-6{letter-spacing:-0.01em;}.cls-7{letter-spacing:-0.08em;}</style></defs><g id="Layer_2" data-name="Layer 2"><g id="Layer_1-2" data-name="Layer 1"><path class="cls-1" d="M75.4,87.55l-75,43.3,66.5,38.4a5.64,5.64,0,0,0,8.5-4.9Z"/><path class="cls-2" d="M162.6,130.85l-.3,84.4a5.75,5.75,0,0,1-2.8,4.9L88.8,261a5.79,5.79,0,0,1-5.7,0l-64.5-37.1a5.64,5.64,0,0,1,0-9.8Z"/><path class="cls-2" d="M0,130.85l.3-84.4a5.75,5.75,0,0,1,2.8-4.9L73.8.75a5.79,5.79,0,0,1,5.7,0l64.6,37.1a5.64,5.64,0,0,1,0,9.8Z"/><path class="cls-3" d="M87.6,97.35v76.8l75-43.3L96.1,92.45A5.67,5.67,0,0,0,87.6,97.35Z"/><text class="cls-4" transform="translate(168.75 205.67)">implify</text><text class="cls-5" transform="translate(283.23 230.36)"><tspan class="cls-6">D</tspan><tspan x="13.69" y="0">AL</tspan><tspan class="cls-7" x="36.46" y="0">A</tspan><tspan x="47.69" y="0">T</tspan></text></g></g></svg>