<svg xmlns="http://www.w3.org/2000/svg" xmlns:xlink="http://www.w3.org/1999/xlink" viewBox="0 0 557.46 436"><defs><style>.cls-1{fill:#fff;}.cls-2{fill:#2543d1;}.cls-3{opacity:0.15;fill:url(#linear-gradient);}.cls-4{opacity:0.29;fill:url(#linear-gradient-2);}.cls-5{fill:#d1d5db;}.cls-6{fill:#9ca3af;}</style><linearGradient id="linear-gradient" x1="264.4" y1="195.45" x2="367.14" y2="195.45" gradientUnits="userSpaceOnUse"><stop offset="0" stop-color="#fff"/><stop offset="0.57" stop-color="#2543d1"/></linearGradient><linearGradient id="linear-gradient-2" x1="211.37" y1="267.05" x2="348" y2="267.05" xlink:href="#linear-gradient"/></defs><g id="Layer_2" data-name="Layer 2"><g id="Layer_1-2" data-name="Layer 1"><path class="cls-1" d="M217.5,15.5A201.45,201.45,0,0,1,360.3,74.7a201.45,201.45,0,0,1,59.2,142.8,201.45,201.45,0,0,1-59.2,142.8,203.75,203.75,0,0,1-64.2,43.3A202,202,0,0,1,15.5,217.5,201.45,201.45,0,0,1,74.7,74.7a202.08,202.08,0,0,1,64.2-43.3,199.32,199.32,0,0,1,78.6-15.9m0-.5C105.7,15,15,105.7,15,217.5S105.7,420,217.5,420,420,329.3,420,217.5,329.3,15,217.5,15Z"/><path class="cls-1" d="M218,.2a217.89,217.89,0,0,1,84.8,418.5,218.81,218.81,0,0,1-169.6,0A219,219,0,0,1,17.3,302.8a218.81,218.81,0,0,1,0-169.6A217.54,217.54,0,0,1,218,.2m0-.2C97.6,0,0,97.6,0,218S97.6,436,218,436s218-97.6,218-218S338.4,0,218,0Z"/><circle class="cls-2" cx="217.5" cy="217.5" r="182.5"/><path class="cls-1" d="M431.46,44.58,325,101.48a11.81,11.81,0,0,0-6.3,10.2l-4.1,119.4a12,12,0,0,0,5.9,10.8l86.1,50.7a12,12,0,0,0,18.1-10l2.7-109,89.2-58.1a12,12,0,0,0,.6-20.3l-85.9-50.7S432.46,44.08,431.46,44.58Z"/><path class="cls-1" d="M446.26,203l-1,100L356,355.78a11.94,11.94,0,0,0-.2,20.5l84.9,52.6a12.1,12.1,0,0,0,12.7,0l97.9-60.9a12.24,12.24,0,0,0,5.7-10.1l.5-112a12,12,0,0,0-6.7-10.8l-87.1-42.6A11.93,11.93,0,0,0,446.26,203Z"/><polygon class="cls-3" points="239.18 163.93 289.35 162.5 316.01 196.5 286.68 228.4 213.27 195.45 239.18 163.93"/><polygon class="cls-4" points="199.54 312.5 143.38 261.71 199.54 255.64 199.54 221.59 280.01 289.96 253.66 312.5 199.54 312.5"/><polygon class="cls-1" points="52.99 165.33 254.27 163.82 262.35 198.92 232.57 204.05 52.99 165.33"/><polygon class="cls-5" points="249.36 263.81 232.57 204.05 52.99 165.33 218.43 234.13 249.36 263.81"/><polygon class="cls-6" points="177.18 240 249.36 263.81 218.43 234.13 177.18 240"/><polygon class="cls-1" points="156.27 277.85 206.09 273.65 218.43 234.13 52.99 165.33 143.38 263.81 156.27 277.85"/></g></g></svg>