<svg id="Layer_1" data-name="Layer 1" xmlns="http://www.w3.org/2000/svg" xmlns:xlink="http://www.w3.org/1999/xlink" viewBox="0 0 169.6 259.7"><defs><style>.cls-1,.cls-3{isolation:isolate;}.cls-1{fill:url(#linear-gradient);}.cls-2{fill:#f6f6f6;}.cls-3{fill:url(#linear-gradient-2);}</style><linearGradient id="linear-gradient" x1="229.88" y1="361.25" x2="265.96" y2="421.5" gradientUnits="userSpaceOnUse"><stop offset="0" stop-color="#fff"/><stop offset="1"/></linearGradient><linearGradient id="linear-gradient-2" x1="324.28" y1="403.32" x2="290.24" y2="343.41" xlink:href="#linear-gradient"/></defs><path class="cls-1" d="M267.8,340.3l-75,43.3L259.3,422a5.59,5.59,0,0,0,7.7-2,6,6,0,0,0,.8-2.9Z" transform="translate(-192.4 -252.75)"/><path class="cls-2" d="M362,381.5l-.3,84.4a5.75,5.75,0,0,1-2.8,4.9l-70.7,40.9a5.79,5.79,0,0,1-5.7,0L218,474.6a5.68,5.68,0,0,1-2.1-7.7,5.3,5.3,0,0,1,2.1-2.1Z" transform="translate(-192.4 -252.75)"/><path class="cls-2" d="M192.4,383.6l.3-84.4a5.75,5.75,0,0,1,2.8-4.9l70.7-40.8a5.79,5.79,0,0,1,5.7,0l64.6,37.1a5.68,5.68,0,0,1,2.1,7.7,5.3,5.3,0,0,1-2.1,2.1Z" transform="translate(-192.4 -252.75)"/><path class="cls-3" d="M286.71,424.82,362,382.06l-66.29-38.88a5.55,5.55,0,0,0-7.69,1.94,6.13,6.13,0,0,0-.79,2.9Z" transform="translate(-192.4 -252.75)"/></svg>