<svg id="Layer_1" data-name="Layer 1" xmlns="http://www.w3.org/2000/svg" viewBox="0 0 162.6 261.75"><defs><style>.cls-1{fill:#007f89;}.cls-2{fill:#2a9793;}.cls-3{fill:#007881;}</style></defs><g id="Layer_2" data-name="Layer 2"><g id="Layer_1-2" data-name="Layer 1-2"><path class="cls-1" d="M75.4,87.55l-75,43.3,66.5,38.4a5.64,5.64,0,0,0,7.72-2,5.59,5.59,0,0,0,.78-2.9Z" transform="translate(0 0)"/><path class="cls-2" d="M162.6,130.85l-.3,84.4a5.73,5.73,0,0,1-2.8,4.9L88.8,261a5.79,5.79,0,0,1-5.7,0L18.6,223.9a5.64,5.64,0,0,1,0-9.8Z" transform="translate(0 0)"/><path class="cls-2" d="M0,130.85l.3-84.4a5.73,5.73,0,0,1,2.8-4.9L73.8.75a5.79,5.79,0,0,1,5.7,0l64.6,37.1a5.64,5.64,0,0,1,0,9.8Z" transform="translate(0 0)"/><path class="cls-3" d="M87.6,97.35v76.8l75-43.3L96.1,92.45a5.67,5.67,0,0,0-7.74,2.08A5.6,5.6,0,0,0,87.6,97.35Z" transform="translate(0 0)"/></g></g></svg>